<svg width="40" height="40" viewBox="0 0 40 40" fill="none" xmlns="http://www.w3.org/2000/svg">
<g clip-path="url(#clip0_288_453)">
<path d="M14.2052 34.2115H3.84031C3.55493 34.2117 3.27231 34.1557 3.00859 34.0467C2.74488 33.9377 2.50524 33.7777 2.30338 33.576C2.10151 33.3742 1.94138 33.1347 1.83213 32.871C1.72286 32.6075 1.66663 32.3248 1.66663 32.0395V9.22725C1.66663 8.65075 1.89564 8.09787 2.30328 7.69023C2.71093 7.28258 3.26381 7.05357 3.84031 7.05357H9.27288C9.29754 5.62928 9.88066 4.27165 10.8966 3.27313C11.9126 2.2746 13.2801 1.71508 14.7046 1.71508C16.1291 1.71508 17.4966 2.2746 18.5126 3.27313C19.5286 4.27165 20.1116 5.62928 20.1365 7.05357H25.5673C25.8526 7.05357 26.1353 7.10982 26.399 7.21907C26.6625 7.32832 26.9021 7.48847 27.1038 7.69033C27.3055 7.8922 27.4655 8.13183 27.5745 8.39555C27.6836 8.65927 27.7396 8.94188 27.7393 9.22725V11.2641" stroke="#07104E" stroke-width="2" stroke-linecap="round" stroke-linejoin="round"/>
<path d="M14.7023 6.91833C14.4773 6.91833 14.2949 6.73595 14.2949 6.51098C14.2949 6.286 14.4773 6.10362 14.7023 6.10362" stroke="#07104E" stroke-width="2"/>
<path d="M14.7023 6.91833C14.9273 6.91833 15.1096 6.73595 15.1096 6.51098C15.1096 6.286 14.9273 6.10362 14.7023 6.10362" stroke="#07104E" stroke-width="2"/>
<path d="M31.3992 15.4729V25.5413L37.4379 31.9548C37.9132 32.5247 38.2142 33.2195 38.3046 33.956C38.3951 34.6925 38.2712 35.4395 37.9479 36.1073C37.6246 36.7753 37.1156 37.3358 36.4817 37.7218C35.8481 38.1078 35.1164 38.3028 34.3746 38.2835H22.6262C21.8844 38.3032 21.1524 38.1083 20.5184 37.7225C19.8844 37.3367 19.3751 36.7762 19.0516 36.1082C18.7281 35.4402 18.6041 34.693 18.6946 33.9563C18.7849 33.2197 19.0859 32.5247 19.5612 31.9548L25.6049 25.5413V15.4729H31.3992Z" stroke="#07104E" stroke-width="2" stroke-linecap="round" stroke-linejoin="round"/>
<path d="M19.5662 31.9548H37.4428" stroke="#07104E" stroke-width="2" stroke-linecap="round" stroke-linejoin="round"/>
<path d="M7.61743 13.4394H20.6954" stroke="#07104E" stroke-width="2" stroke-linecap="round" stroke-linejoin="round"/>
<path d="M7.61743 19.219H17.4365" stroke="#07104E" stroke-width="2" stroke-linecap="round" stroke-linejoin="round"/>
<path d="M7.61743 24.9987H13.3628" stroke="#07104E" stroke-width="2" stroke-linecap="round" stroke-linejoin="round"/>
</g>
<defs>
<clipPath id="clip0_288_453">
<rect width="40" height="40" fill="white"/>
</clipPath>
</defs>
</svg>
