<svg width="49" height="49" viewBox="0 0 49 49" fill="none" xmlns="http://www.w3.org/2000/svg">
<g clip-path="url(#clip0_288_440)">
<path d="M23.6652 43.2822C22.517 44.4773 21.1419 45.4313 19.6204 46.0883C18.0989 46.7453 16.4616 47.0921 14.8043 47.1085C13.1471 47.1248 11.5033 46.8103 9.96912 46.1835C8.43495 45.5566 7.04128 44.6299 5.86971 43.4577C4.69814 42.2855 3.77223 40.8913 3.14619 39.3568C2.52015 37.8223 2.20657 36.1783 2.22382 34.5211C2.24106 32.8639 2.58878 31.2268 3.24662 29.7056C3.90445 28.1845 4.85918 26.8099 6.05489 25.6623L25.2426 6.47263C27.5845 4.14616 30.7516 2.84045 34.0526 2.84045C37.3536 2.84045 40.5207 4.14616 42.8626 6.47263C45.19 8.81402 46.4963 11.9812 46.4963 15.2826C46.4963 18.5839 45.19 21.7512 42.8626 24.0926L23.6652 43.2822Z" stroke="#07104E" stroke-width="2" stroke-linecap="round" stroke-linejoin="round"/>
<path d="M15.6459 16.0636L33.262 33.6816" stroke="#07104E" stroke-width="2" stroke-linecap="round" stroke-linejoin="round"/>
<path d="M27.9528 10.5283C28.6647 9.81604 29.51 9.25105 30.4404 8.86556C31.3707 8.48008 32.3679 8.28168 33.375 8.28168C34.3821 8.28168 35.3793 8.48008 36.3096 8.86556C37.24 9.25105 38.0853 9.81604 38.7973 10.5283" stroke="#07104E" stroke-width="2" stroke-linecap="round" stroke-linejoin="round"/>
</g>
<defs>
<clipPath id="clip0_288_440">
<rect width="48" height="48" fill="white" transform="translate(0.454834 0.87262)"/>
</clipPath>
</defs>
</svg>
