<svg width="93" height="139" viewBox="0 0 93 139" fill="none" xmlns="http://www.w3.org/2000/svg">
<path d="M76.3222 25.7336V31.6274H16.8565V20.3955C16.8565 19.2008 17.332 18.0551 18.1786 17.2103C19.0253 16.3655 20.1738 15.8909 21.3712 15.8909H37.7392C37.1985 14.6381 36.9277 13.286 36.9438 11.9221C36.9438 9.29059 37.9913 6.76689 39.8562 4.90614C41.7211 3.04538 44.2506 2 46.888 2C49.5253 2 52.0544 3.04538 53.9193 4.90614C55.7841 6.76689 56.8321 9.29059 56.8321 11.9221C56.8386 13.2851 56.5676 14.6353 56.0363 15.8909H71.8075C73.0049 15.8909 74.1534 16.3655 75 17.2103C75.8467 18.0551 76.3222 19.2008 76.3222 20.3955V25.7336Z" fill="#07104E"/>
<path d="M16.6574 27.7336C17.762 27.7336 18.6574 26.8382 18.6574 25.7336C18.6574 24.629 17.762 23.7336 16.6574 23.7336V27.7336ZM76.3222 31.6274V33.6274C77.4268 33.6274 78.3222 32.7319 78.3222 31.6274H76.3222ZM56.0363 15.8909L54.1944 15.1115C53.933 15.7292 53.9986 16.4367 54.3691 16.9957C54.7396 17.5548 55.3656 17.8909 56.0363 17.8909V15.8909ZM56.8321 11.9221H54.8321L54.8321 11.9316L56.8321 11.9221ZM36.9438 11.9221L38.9437 11.9458C38.9438 11.9379 38.9438 11.93 38.9438 11.9221H36.9438ZM37.7392 15.8909V17.8909C38.4123 17.8909 39.0404 17.5523 39.4102 16.9898C39.7801 16.4273 39.8422 15.7165 39.5755 15.0984L37.7392 15.8909ZM16.8565 31.6274H14.8565C14.8565 32.7319 15.7519 33.6274 16.8565 33.6274V31.6274ZM48.3906 47.0859C48.3906 45.9814 47.4951 45.0859 46.3906 45.0859C45.286 45.0859 44.3906 45.9814 44.3906 47.0859H48.3906ZM44.3906 70.1449C44.3906 71.2495 45.286 72.1449 46.3906 72.1449C47.4951 72.1449 48.3906 71.2495 48.3906 70.1449H44.3906ZM57.9456 60.6154C59.0502 60.6154 59.9456 59.72 59.9456 58.6154C59.9456 57.5109 59.0502 56.6154 57.9456 56.6154V60.6154ZM34.8355 56.6154C33.7309 56.6154 32.8355 57.5109 32.8355 58.6154C32.8355 59.72 33.7309 60.6154 34.8355 60.6154V56.6154ZM17.8111 83.4051C16.7065 83.4051 15.8111 84.3005 15.8111 85.4051C15.8111 86.5097 16.7065 87.4051 17.8111 87.4051V83.4051ZM75.3081 87.4051C76.4127 87.4051 77.3081 86.5097 77.3081 85.4051C77.3081 84.3005 76.4127 83.4051 75.3081 83.4051V87.4051ZM17.8111 99.6575C16.7065 99.6575 15.8111 100.553 15.8111 101.657C15.8111 102.762 16.7065 103.657 17.8111 103.657V99.6575ZM75.3081 103.657C76.4127 103.657 77.3081 102.762 77.3081 101.657C77.3081 100.553 76.4127 99.6575 75.3081 99.6575V103.657ZM17.8111 116.108C16.7065 116.108 15.8111 117.004 15.8111 118.108C15.8111 119.213 16.7065 120.108 17.8111 120.108V116.108ZM75.3081 120.108C76.4127 120.108 77.3081 119.213 77.3081 118.108C77.3081 117.004 76.4127 116.108 75.3081 116.108V120.108ZM76.3222 27.7336H80.2999V23.7336H76.3222V27.7336ZM80.2999 27.7336C84.9609 27.7336 89 31.9442 89 37.6401H93C93 30.1594 87.5718 23.7336 80.2999 23.7336V27.7336ZM89 37.6401V125.093H93V37.6401H89ZM89 125.093C89 130.747 84.904 135 80.2999 135V139C87.5093 139 93 132.538 93 125.093H89ZM80.2999 135H12.6797V139H80.2999V135ZM12.6797 135C8.02539 135 4 130.777 4 125.093H0C0 132.547 5.40115 139 12.6797 139V135ZM4 125.093V37.6401H0V125.093H4ZM4 37.6401C4 31.9668 8.09583 27.7336 12.6797 27.7336V23.7336C5.48981 23.7336 0 30.1766 0 37.6401H4ZM12.6797 27.7336H16.6574V23.7336H12.6797V27.7336ZM78.3222 31.6274V25.7336H74.3222V31.6274H78.3222ZM78.3222 25.7336V20.3955H74.3222V25.7336H78.3222ZM78.3222 20.3955C78.3222 18.6691 77.635 17.0141 76.4127 15.7945L73.5874 18.6261C74.0584 19.096 74.3222 19.7325 74.3222 20.3955H78.3222ZM76.4127 15.7945C75.1905 14.5751 73.5338 13.8909 71.8075 13.8909V17.8909C72.476 17.8909 73.1162 18.1559 73.5874 18.6261L76.4127 15.7945ZM71.8075 13.8909H56.0363V17.8909H71.8075V13.8909ZM57.8782 16.6704C58.515 15.1655 58.8398 13.547 58.8321 11.9126L54.8321 11.9316C54.8373 13.0232 54.6203 14.105 54.1944 15.1115L57.8782 16.6704ZM58.8321 11.9221C58.8321 8.75858 57.5722 5.72574 55.3319 3.49036L52.5066 6.32192C53.996 7.80804 54.8321 9.8226 54.8321 11.9221H58.8321ZM55.3319 3.49036C53.0917 1.25507 50.0544 0 46.888 0V4C48.9962 4 51.0171 4.8357 52.5066 6.32192L55.3319 3.49036ZM46.888 0C43.7216 0 40.6839 1.255 38.4435 3.49036L41.2688 6.32192C42.7583 4.83577 44.7796 4 46.888 4V0ZM38.4435 3.49036C36.203 5.72592 34.9438 8.75883 34.9438 11.9221H38.9438C38.9438 9.82235 39.7796 7.80787 41.2688 6.32192L38.4435 3.49036ZM34.944 11.8984C34.9245 13.5428 35.251 15.173 35.9029 16.6834L39.5755 15.0984C39.146 14.1033 38.9308 13.0293 38.9437 11.9458L34.944 11.8984ZM37.7392 13.8909H21.3712V17.8909H37.7392V13.8909ZM21.3712 13.8909C19.6449 13.8909 17.9881 14.5751 16.766 15.7945L19.5913 18.6261C20.0625 18.1559 20.7027 17.8909 21.3712 17.8909V13.8909ZM16.766 15.7945C15.5437 17.0141 14.8565 18.6691 14.8565 20.3955H18.8565C18.8565 19.7325 19.1203 19.096 19.5913 18.6261L16.766 15.7945ZM14.8565 20.3955V31.6274H18.8565V20.3955H14.8565ZM16.8565 33.6274H76.3222V29.6274H16.8565V33.6274ZM44.3906 47.0859V58.6154H48.3906V47.0859H44.3906ZM44.3906 58.6154V70.1449H48.3906V58.6154H44.3906ZM57.9456 56.6154H46.3906V60.6154H57.9456V56.6154ZM46.3906 56.6154H34.8355V60.6154H46.3906V56.6154ZM47.4136 11.6046C47.4136 11.8658 47.2001 12.0851 46.9275 12.0851V16.0851C49.4009 16.0851 51.4136 14.0833 51.4136 11.6046H47.4136ZM46.9275 12.0851C46.6549 12.0851 46.4415 11.8658 46.4415 11.6046H42.4415C42.4415 14.0833 44.4542 16.0851 46.9275 16.0851V12.0851ZM46.4415 11.6046C46.4415 11.3434 46.6549 11.124 46.9275 11.124V7.12404C44.4542 7.12404 42.4415 9.12586 42.4415 11.6046H46.4415ZM46.9275 11.124C47.2001 11.124 47.4136 11.3434 47.4136 11.6046H51.4136C51.4136 9.12586 49.4009 7.12404 46.9275 7.12404V11.124ZM17.8111 87.4051H75.3081V83.4051H17.8111V87.4051ZM17.8111 103.657H75.3081V99.6575H17.8111V103.657ZM17.8111 120.108H75.3081V116.108H17.8111V120.108Z" fill="#07104E"/>
</svg>
